<svg xmlns="http://www.w3.org/2000/svg" version="1.1" xmlns:xlink="http://www.w3.org/1999/xlink" xmlns:svgjs="http://svgjs.dev/svgjs" width="2000" height="318" viewBox="0 0 2000 318"><g transform="matrix(1,0,0,1,-2.1070222308885604,2.584682601202246)"><svg viewBox="0 0 396 63" data-background-color="#000000" preserveAspectRatio="xMidYMid meet" height="318" width="2000" xmlns="http://www.w3.org/2000/svg" xmlns:xlink="http://www.w3.org/1999/xlink"><g id="tight-bounds" transform="matrix(1,0,0,1,0.417190401715942,0.16739964291977572)"><svg viewBox="0 0 395.5199999999999 62.66520071416047" height="62.66520071416047" width="395.5199999999999"><g><svg viewBox="0 0 680.0424849449306 107.7442324363636" height="62.66520071416047" width="395.5199999999999"><g><rect width="4.692037294412846" height="94.03865805435775" x="256.714180142442" y="6.852787191002925" fill="#ffffff" opacity="1" stroke-width="0" stroke="transparent" fill-opacity="1" class="rect-yte-0" data-fill-palette-color="primary" rx="1%" id="yte-0" data-palette-color="#ffffff"></rect></g><g><rect width="4.692037294412846" height="94.03865805435775" x="267.54762750807583" y="6.852787191002925" fill="#ffffff" opacity="1" stroke-width="0" stroke="transparent" fill-opacity="1" class="rect-yte-1" data-fill-palette-color="primary" rx="1%" id="yte-1" data-palette-color="#ffffff"></rect></g><g transform="matrix(1,0,0,1,284.5224849449307,7.086714201088384)"><svg viewBox="0 0 395.5199999999999 93.57080403418684" height="93.57080403418684" width="395.5199999999999"><g id="textblocktransform"><svg viewBox="0 0 395.5199999999999 93.57080403418684" height="93.57080403418684" width="395.5199999999999" id="textblock"><g><svg viewBox="0 0 395.5199999999999 52.02909292957355" height="52.02909292957355" width="395.5199999999999"><g transform="matrix(1,0,0,1,0,0)"><svg width="395.5199999999999" viewBox="4.6 -37.5 358.16999999999996 47.35" height="52.02909292957355" data-palette-color="#ffffff"><g class="wordmark-text-0" data-fill-palette-color="primary" id="text-0"><path d="M4.6-35L18.95-35Q22.9-35 26.2-33.7 29.5-32.4 31.93-30.05 34.35-27.7 35.7-24.5 37.05-21.3 37.05-17.5L37.05-17.5Q37.05-13.7 35.7-10.53 34.35-7.35 31.9-4.98 29.45-2.6 26.1-1.3 22.75 0 18.8 0L18.8 0 4.6 0 4.6-35ZM10.5-5.05L19.1-5.05Q21.65-5.05 23.83-5.95 26-6.85 27.63-8.53 29.25-10.2 30.18-12.48 31.1-14.75 31.1-17.45L31.1-17.45Q31.1-20.2 30.15-22.48 29.2-24.75 27.55-26.45 25.9-28.15 23.68-29.05 21.45-29.95 18.85-29.95L18.85-29.95 10.5-29.95 10.5-5.05ZM43 0L43-26.55 48.7-26.55 48.7 0 43 0ZM45.85-37.5L45.85-37.5Q47.3-37.5 48.25-36.55 49.2-35.6 49.2-34.15L49.2-34.15Q49.2-32.75 48.25-31.78 47.3-30.8 45.85-30.8L45.85-30.8Q44.45-30.8 43.47-31.78 42.5-32.75 42.5-34.15L42.5-34.15Q42.5-35.6 43.47-36.55 44.45-37.5 45.85-37.5ZM59.35-15.2L75.6-15.2Q75.5-17.45 74.57-19.03 73.65-20.6 72-21.48 70.35-22.35 68.2-22.35L68.2-22.35Q65.8-22.35 64.02-21.25 62.25-20.15 61.25-18.18 60.25-16.2 60.25-13.55L60.25-13.55Q60.25-10.7 61.32-8.6 62.4-6.5 64.32-5.35 66.25-4.2 68.75-4.2L68.75-4.2Q73.2-4.2 76.25-7.35L76.25-7.35 79.3-4.3Q77.35-2.15 74.55-0.98 71.75 0.2 68.3 0.2L68.3 0.2Q64.2 0.2 61.15-1.5 58.1-3.2 56.4-6.23 54.7-9.25 54.7-13.25L54.7-13.25Q54.7-17.25 56.4-20.28 58.1-23.3 61.15-25 64.2-26.7 68.15-26.75L68.15-26.75Q72.85-26.75 75.7-24.83 78.55-22.9 79.75-19.4 80.95-15.9 80.6-11.1L80.6-11.1 59.35-11.1 59.35-15.2ZM110.59-26.55L110.59-2.65Q110.59 1.2 108.89 4 107.19 6.8 104.09 8.33 100.99 9.85 96.79 9.85L96.79 9.85Q93.69 9.85 90.94 8.93 88.19 8 85.74 6.35L85.74 6.35 88.19 2.4Q90.09 3.8 92.09 4.58 94.09 5.35 96.54 5.35L96.54 5.35Q99.09 5.35 100.97 4.38 102.84 3.4 103.87 1.65 104.89-0.1 104.89-2.5L104.89-2.5 104.89-26.55 110.59-26.55ZM95.89-26.75L95.89-26.75Q99.39-26.8 101.87-25.28 104.34-23.75 105.64-20.9 106.94-18.05 106.89-14.05L106.89-14.05Q106.94-10.05 105.67-7.18 104.39-4.3 101.97-2.78 99.54-1.25 96.09-1.25L96.09-1.25Q92.49-1.25 89.79-2.88 87.09-4.5 85.59-7.4 84.09-10.3 84.09-14.1L84.09-14.1Q84.09-17.85 85.57-20.68 87.04-23.5 89.72-25.13 92.39-26.75 95.89-26.75ZM97.24-22.35L97.24-22.35Q94.99-22.35 93.24-21.28 91.49-20.2 90.52-18.3 89.54-16.4 89.49-13.95L89.49-13.95Q89.54-11.5 90.52-9.6 91.49-7.7 93.22-6.63 94.94-5.55 97.24-5.55L97.24-5.55Q99.49-5.55 101.22-6.63 102.94-7.7 103.92-9.6 104.89-11.5 104.89-13.95L104.89-13.95Q104.89-16.45 103.92-18.32 102.94-20.2 101.22-21.28 99.49-22.35 97.24-22.35ZM129.99-26.75L129.99-26.75Q134.09-26.75 137.22-25.05 140.34-23.35 142.09-20.33 143.84-17.3 143.84-13.3L143.84-13.3Q143.84-9.3 142.09-6.25 140.34-3.2 137.22-1.5 134.09 0.2 129.99 0.2L129.99 0.2Q125.89 0.2 122.74-1.5 119.59-3.2 117.84-6.25 116.09-9.3 116.09-13.3L116.09-13.3Q116.09-17.3 117.84-20.33 119.59-23.35 122.74-25.05 125.89-26.75 129.99-26.75ZM129.99-22.1L129.99-22.1Q127.59-22.1 125.74-20.98 123.89-19.85 122.87-17.85 121.84-15.85 121.84-13.25L121.84-13.25Q121.84-10.6 122.87-8.6 123.89-6.6 125.74-5.48 127.59-4.35 129.99-4.35L129.99-4.35Q132.39-4.35 134.22-5.48 136.04-6.6 137.07-8.6 138.09-10.6 138.09-13.25L138.09-13.25Q138.09-15.85 137.07-17.85 136.04-19.85 134.22-20.98 132.39-22.1 129.99-22.1Z" fill="#ffffff" data-fill-palette-color="primary"></path><path d="M157.39 0L172.84-35 178.89-35 194.19 0 187.89 0 175.69-29.05 163.54 0 157.39 0ZM165.09-8.1L165.09-13.1 186.04-13.1 186.04-8.1 165.09-8.1ZM222.49-26.55L222.49-2.65Q222.49 1.2 220.79 4 219.09 6.8 215.99 8.33 212.89 9.85 208.68 9.85L208.68 9.85Q205.59 9.85 202.84 8.93 200.09 8 197.64 6.35L197.64 6.35 200.09 2.4Q201.99 3.8 203.99 4.58 205.99 5.35 208.43 5.35L208.43 5.35Q210.99 5.35 212.86 4.38 214.74 3.4 215.76 1.65 216.79-0.1 216.79-2.5L216.79-2.5 216.79-26.55 222.49-26.55ZM207.79-26.75L207.79-26.75Q211.29-26.8 213.76-25.28 216.24-23.75 217.54-20.9 218.84-18.05 218.79-14.05L218.79-14.05Q218.84-10.05 217.56-7.18 216.29-4.3 213.86-2.78 211.43-1.25 207.99-1.25L207.99-1.25Q204.39-1.25 201.69-2.88 198.99-4.5 197.49-7.4 195.99-10.3 195.99-14.1L195.99-14.1Q195.99-17.85 197.46-20.68 198.94-23.5 201.61-25.13 204.29-26.75 207.79-26.75ZM209.14-22.35L209.14-22.35Q206.89-22.35 205.14-21.28 203.39-20.2 202.41-18.3 201.44-16.4 201.39-13.95L201.39-13.95Q201.44-11.5 202.41-9.6 203.39-7.7 205.11-6.63 206.84-5.55 209.14-5.55L209.14-5.55Q211.39-5.55 213.11-6.63 214.84-7.7 215.81-9.6 216.79-11.5 216.79-13.95L216.79-13.95Q216.79-16.45 215.81-18.32 214.84-20.2 213.11-21.28 211.39-22.35 209.14-22.35ZM235.38-26.55L235.38-11.55Q235.38-8.45 237.03-6.68 238.68-4.9 241.58-4.9L241.58-4.9Q245.03-5 246.96-7.45 248.88-9.9 248.88-13.5L248.88-13.5 250.43-13.5Q250.43-8.6 249.08-5.6 247.73-2.6 245.26-1.23 242.78 0.15 239.38 0.2L239.38 0.2Q236.33 0.2 234.16-1.05 231.98-2.3 230.81-4.6 229.63-6.9 229.63-10.05L229.63-10.05 229.63-26.55 235.38-26.55ZM248.88 0L248.88-26.55 254.63-26.55 254.63 0 248.88 0ZM263.13 0L263.13-26.55 268.83-26.55 268.83 0 263.13 0ZM265.98-37.5L265.98-37.5Q267.43-37.5 268.38-36.55 269.33-35.6 269.33-34.15L269.33-34.15Q269.33-32.75 268.38-31.78 267.43-30.8 265.98-30.8L265.98-30.8Q264.58-30.8 263.61-31.78 262.63-32.75 262.63-34.15L262.63-34.15Q262.63-35.6 263.61-36.55 264.58-37.5 265.98-37.5ZM277.58 0L277.58-37.1 283.33-37.1 283.33 0 277.58 0ZM294.23-15.2L310.48-15.2Q310.38-17.45 309.45-19.03 308.53-20.6 306.88-21.48 305.23-22.35 303.08-22.35L303.08-22.35Q300.68-22.35 298.9-21.25 297.13-20.15 296.13-18.18 295.13-16.2 295.13-13.55L295.13-13.55Q295.13-10.7 296.2-8.6 297.28-6.5 299.2-5.35 301.13-4.2 303.63-4.2L303.63-4.2Q308.08-4.2 311.13-7.35L311.13-7.35 314.18-4.3Q312.23-2.15 309.43-0.98 306.63 0.2 303.18 0.2L303.18 0.2Q299.08 0.2 296.03-1.5 292.98-3.2 291.28-6.23 289.58-9.25 289.58-13.25L289.58-13.25Q289.58-17.25 291.28-20.28 292.98-23.3 296.03-25 299.08-26.7 303.03-26.75L303.03-26.75Q307.73-26.75 310.58-24.83 313.43-22.9 314.63-19.4 315.83-15.9 315.48-11.1L315.48-11.1 294.23-11.1 294.23-15.2ZM336.42-26.75L336.42-21.55Q333.57-21.7 331.5-20.58 329.42-19.45 328.3-17.45 327.17-15.45 327.17-12.85L327.17-12.85 325.57-13.05Q325.57-17.5 326.87-20.55 328.17-23.6 330.62-25.18 333.07-26.75 336.42-26.75L336.42-26.75ZM321.47 0L321.47-26.55 327.22-26.55 327.22 0 321.47 0ZM357.82-11.85L349.87-11.85Q347.07-11.85 345.72-11 344.37-10.15 344.37-8.2L344.37-8.2Q344.37-6.35 345.75-5.25 347.12-4.15 349.52-4.15L349.52-4.15Q351.67-4.15 353.37-4.9 355.07-5.65 356.07-6.93 357.07-8.2 357.12-9.8L357.12-9.8 358.22-4.95Q356.97-2.35 354.42-1.05 351.87 0.25 348.32 0.25L348.32 0.25Q345.47 0.25 343.37-0.85 341.27-1.95 340.12-3.83 338.97-5.7 338.97-8L338.97-8Q338.97-11.6 341.6-13.75 344.22-15.9 349.02-15.95L349.02-15.95 357.82-15.95 357.82-11.85ZM357.12 0L357.07-16.85Q357.07-19.45 355.47-20.9 353.87-22.35 350.72-22.35L350.72-22.35Q348.82-22.35 346.85-21.65 344.87-20.95 342.87-19.6L342.87-19.6 340.52-23.3Q342.37-24.45 344.02-25.2 345.67-25.95 347.55-26.35 349.42-26.75 351.97-26.75L351.97-26.75Q357.12-26.75 359.9-24.28 362.67-21.8 362.72-17.45L362.72-17.45 362.77 0 357.12 0Z" fill="#ffffff" data-fill-palette-color="accent"></path></g></svg></g></svg></g><g transform="matrix(1,0,0,1,0,64.31191307201556)"><svg viewBox="0 0 232.20979199999994 29.258890962171282" height="29.258890962171282" width="232.20979199999994"><g transform="matrix(1,0,0,1,0,0)"><svg width="232.20979199999994" viewBox="3.15 -35.2 355.51000000000005 44.800000000000004" height="29.258890962171282" data-palette-color="#ffffff"><path d="M16.65-28.9L10.5-28.8 9.1-18 14.85-17.9 19.85-18.05 20.1-17.7 19.4-14.8 14.1-14.9 8.65-14.85 8-9.95 7.3-3.2 13.4-3.1 20.65-3.3 20.8-2.95 20.15 0 3.15 0 4.6-9.65 7.2-32 24.25-32 24.4-31.65 23.75-28.7 16.65-28.9ZM39.4-23.25Q41.15-22.85 42.22-21.73 43.3-20.6 43.25-18.9L43.25-18.9 43.2-18.25 41.15-5.4 40.85-0.15 37 0.2 39.75-16.9 39.8-17.55Q39.8-19.1 38.75-19.1L38.75-19.1Q37.3-19.1 34.67-15.45 32.05-11.8 28.8-5.05L28.8-5.05 28.55-0.15 24.75 0.2 27.35-17.95 27.6-22.8 31.3-23.15 29.7-11.9 30.15-11.9Q32.7-16.25 34.7-18.93 36.7-21.6 38.85-23.25L38.85-23.25 39.4-23.25ZM55.5-20L53.15-5.55 53.05-4.75Q53.05-4 53.4-3.55 53.75-3.1 54.4-3.1L54.4-3.1Q56.2-3.1 58.75-7.1L58.75-7.1 59.2-7.1 60.25-5.75Q58.5-2.85 57.1-1.5 55.7-0.15 53.95 0.35L53.95 0.35Q51.95 0.35 50.82-0.75 49.7-1.85 49.7-3.85L49.7-3.85 49.8-5.05 51.95-17.95 52.2-20 48.85-20 48.6-20.25 48.85-22.5 52.55-22.5 53.25-28.05 56.7-29.65 57-29.35 55.9-22.5 62-22.5 62.3-22.1 62.05-20 55.5-20ZM78.59-23.1L79.79-23 79.04-18 78.74-17.85 78.29-17.9Q75.89-17.55 73.69-14.63 71.49-11.7 68.59-4.5L68.59-4.5 68.39-0.15 64.59 0.2 67.19-17.95 67.44-22.8 71.09-23.15 69.59-12.15 69.99-12.15Q71.79-15.8 73.87-18.48 75.94-21.15 78.59-23.1L78.59-23.1ZM93.09-7L93.69-6.95 94.89-5.4Q93.29-2.95 91.39-1.55 89.49-0.15 87.09 0.35L87.09 0.35 86.49 0.35Q83.29-0.05 81.82-2 80.34-3.95 80.34-7.8L80.34-7.8Q80.34-12.2 81.77-15.7 83.19-19.2 85.67-21.2 88.14-23.2 91.34-23.3L91.34-23.3 91.74-23.25Q93.89-23 95.02-21.85 96.14-20.7 96.14-18.8L96.14-18.8Q96.14-15.8 93.04-13.28 89.94-10.75 83.84-8.85L83.84-8.85Q83.84-5.7 84.67-4.25 85.49-2.8 87.24-2.8L87.24-2.8Q88.74-2.8 90.12-3.8 91.49-4.8 93.09-7L93.09-7ZM90.54-20.6Q87.99-20.6 86.22-18.13 84.44-15.65 83.99-11.5L83.99-11.5Q88.29-12.9 90.52-14.68 92.74-16.45 92.74-18.55L92.74-18.55Q92.74-20.6 90.54-20.6L90.54-20.6ZM114.34-23.25Q116.09-22.85 117.16-21.73 118.24-20.6 118.19-18.9L118.19-18.9 118.14-18.25 116.09-5.4 115.79-0.15 111.94 0.2 114.69-16.9 114.74-17.55Q114.74-19.1 113.69-19.1L113.69-19.1Q112.24-19.1 109.61-15.45 106.99-11.8 103.74-5.05L103.74-5.05 103.49-0.15 99.69 0.2 102.29-17.95 102.54-22.8 106.24-23.15 104.64-11.9 105.09-11.9Q107.64-16.25 109.64-18.93 111.64-21.6 113.79-23.25L113.79-23.25 114.34-23.25ZM139.94-23.3L140.39-23 137.94-5.45 137.69-0.15 133.89 0.2 135.34-10.05 134.84-10.05Q131.19-3.65 126.99 0.35L126.99 0.35 126.29 0.35Q122.49-1.8 122.49-7.5L122.49-7.5Q122.49-11.1 123.84-14.5 125.19-17.9 127.81-20.28 130.44-22.65 134.19-23.25L134.19-23.25 134.44-23.25 137.54-22.1 139.94-23.3ZM127.34-3.75Q127.94-3.75 129.41-5.4 130.89-7.05 132.76-10.2 134.64-13.35 136.44-17.6L136.44-17.6 136.49-17.9 136.54-19.1 133.44-20.2Q131.14-20.2 129.41-18.63 127.69-17.05 126.79-14.38 125.89-11.7 125.89-8.45L125.89-8.45Q125.89-5.95 126.34-4.85 126.79-3.75 127.34-3.75L127.34-3.75ZM160.33-34.85L164.13-35.2 159.98-5.45 159.73-0.15 155.93 0.2 157.38-10.05 156.88-10.05Q153.18-3.7 148.93 0.35L148.93 0.35 148.18 0.35Q144.38-1.8 144.38-7.5L144.38-7.5Q144.38-11.1 145.73-14.5 147.08-17.9 149.76-20.3 152.43-22.7 156.18-23.25L156.18-23.25 156.43-23.25 159.08-22.3 160.18-30 160.33-34.85ZM149.28-3.75Q149.88-3.75 151.33-5.38 152.78-7 154.68-10.13 156.58-13.25 158.43-17.45L158.43-17.45 158.63-19.05 155.48-20.2Q153.13-20.2 151.38-18.63 149.63-17.05 148.68-14.38 147.73-11.7 147.73-8.45L147.73-8.45Q147.73-5.95 148.21-4.85 148.68-3.75 149.28-3.75L149.28-3.75ZM177.73-23.3L178.13-23.3Q180.88-22.85 182.26-21 183.63-19.15 183.63-15.7L183.63-15.7Q183.63-11.1 182.33-7.55 181.03-4 178.56-1.93 176.08 0.15 172.68 0.45L172.68 0.45 172.23 0.4Q169.38-0.15 168.01-2 166.63-3.85 166.63-7.45L166.63-7.45Q166.63-11.95 167.98-15.48 169.33-19 171.86-21.05 174.38-23.1 177.73-23.3L177.73-23.3ZM177.08-20.25Q173.68-20.25 171.88-16.8 170.08-13.35 170.08-7.5L170.08-7.5Q170.08-4.9 170.78-3.73 171.48-2.55 173.13-2.55L173.13-2.55Q176.48-2.55 178.28-6.05 180.08-9.55 180.08-15.45L180.08-15.45Q180.08-18 179.38-19.13 178.68-20.25 177.08-20.25L177.08-20.25ZM201.53-23.1L202.73-23 201.98-18 201.68-17.85 201.23-17.9Q198.83-17.55 196.63-14.63 194.43-11.7 191.53-4.5L191.53-4.5 191.33-0.15 187.53 0.2 190.13-17.95 190.38-22.8 194.03-23.15 192.53-12.15 192.93-12.15Q194.73-15.8 196.8-18.48 198.88-21.15 201.53-23.1L201.53-23.1ZM225.47-23.25Q229.27-20.95 229.27-15.4L229.27-15.4Q229.27-11.75 227.92-8.38 226.57-5 223.9-2.6 221.22-0.2 217.47 0.35L217.47 0.35 217.27 0.35 214.57-0.25 214.02 3.8 213.77 9.25 209.97 9.6 213.82-17.95 214.07-22.8 217.72-23.15 216.32-12.85 216.87-12.85Q220.52-19.25 224.77-23.25L224.77-23.25 225.47-23.25ZM218.22-2.65Q220.57-2.65 222.3-4.25 224.02-5.85 224.95-8.53 225.87-11.2 225.87-14.45L225.87-14.45Q225.87-16.95 225.42-18.03 224.97-19.1 224.37-19.1L224.37-19.1Q223.77-19.1 222.3-17.45 220.82-15.8 218.95-12.65 217.07-9.5 215.27-5.25L215.27-5.25 215.02-3.55 218.22-2.65ZM245.32-7L245.92-6.95 247.12-5.4Q245.52-2.95 243.62-1.55 241.72-0.15 239.32 0.35L239.32 0.35 238.72 0.35Q235.52-0.05 234.05-2 232.57-3.95 232.57-7.8L232.57-7.8Q232.57-12.2 234-15.7 235.42-19.2 237.9-21.2 240.37-23.2 243.57-23.3L243.57-23.3 243.97-23.25Q246.12-23 247.25-21.85 248.37-20.7 248.37-18.8L248.37-18.8Q248.37-15.8 245.27-13.28 242.17-10.75 236.07-8.85L236.07-8.85Q236.07-5.7 236.9-4.25 237.72-2.8 239.47-2.8L239.47-2.8Q240.97-2.8 242.35-3.8 243.72-4.8 245.32-7L245.32-7ZM242.77-20.6Q240.22-20.6 238.45-18.13 236.67-15.65 236.22-11.5L236.22-11.5Q240.52-12.9 242.75-14.68 244.97-16.45 244.97-18.55L244.97-18.55Q244.97-20.6 242.77-20.6L242.77-20.6ZM265.87-23.1L267.07-23 266.32-18 266.02-17.85 265.57-17.9Q263.17-17.55 260.97-14.63 258.77-11.7 255.87-4.5L255.87-4.5 255.67-0.15 251.87 0.2 254.47-17.95 254.72-22.8 258.37-23.15 256.87-12.15 257.27-12.15Q259.07-15.8 261.14-18.48 263.22-21.15 265.87-23.1L265.87-23.1ZM276.97-23.2Q279.12-22.8 281.17-21.95L281.17-21.95 280.12-18.55 279.52-18.35Q277.57-20.55 275.52-20.55L275.52-20.55Q274.02-20.55 272.94-19.48 271.87-18.4 271.87-17.05L271.87-17.05Q271.87-15.95 272.62-15.15 273.37-14.35 275.02-13.15L275.02-13.15Q277.17-11.6 278.29-10.28 279.42-8.95 279.42-6.8L279.42-6.8Q279.42-4.8 278.32-3.15 277.22-1.5 275.27-0.55 273.32 0.4 270.82 0.4L270.82 0.4Q268.22 0.05 265.82-1.3L265.82-1.3 266.77-4.85 267.32-5.1Q268.32-3.7 269.57-2.98 270.82-2.25 272.12-2.25L272.12-2.25Q273.82-2.25 274.92-3.35 276.02-4.45 276.02-5.85L276.02-5.85Q276.02-7.15 275.19-8.05 274.37-8.95 272.67-10.1L272.67-10.1Q270.57-11.6 269.47-12.88 268.37-14.15 268.37-16.2L268.37-16.2Q268.37-18.25 269.54-19.85 270.72-21.45 272.69-22.35 274.67-23.25 276.97-23.2L276.97-23.2ZM294.71-23.3L295.11-23.3Q297.86-22.85 299.24-21 300.61-19.15 300.61-15.7L300.61-15.7Q300.61-11.1 299.31-7.55 298.01-4 295.54-1.93 293.06 0.15 289.66 0.45L289.66 0.45 289.21 0.4Q286.36-0.15 284.99-2 283.61-3.85 283.61-7.45L283.61-7.45Q283.61-11.95 284.96-15.48 286.31-19 288.84-21.05 291.36-23.1 294.71-23.3L294.71-23.3ZM294.06-20.25Q290.66-20.25 288.86-16.8 287.06-13.35 287.06-7.5L287.06-7.5Q287.06-4.9 287.76-3.73 288.46-2.55 290.11-2.55L290.11-2.55Q293.46-2.55 295.26-6.05 297.06-9.55 297.06-15.45L297.06-15.45Q297.06-18 296.36-19.13 295.66-20.25 294.06-20.25L294.06-20.25ZM319.21-23.25Q320.96-22.85 322.04-21.73 323.11-20.6 323.06-18.9L323.06-18.9 323.01-18.25 320.96-5.4 320.66-0.15 316.81 0.2 319.56-16.9 319.61-17.55Q319.61-19.1 318.56-19.1L318.56-19.1Q317.11-19.1 314.49-15.45 311.86-11.8 308.61-5.05L308.61-5.05 308.36-0.15 304.56 0.2 307.16-17.95 307.41-22.8 311.11-23.15 309.51-11.9 309.96-11.9Q312.51-16.25 314.51-18.93 316.51-21.6 318.66-23.25L318.66-23.25 319.21-23.25ZM344.81-23.3L345.26-23 342.81-5.45 342.56-0.15 338.76 0.2 340.21-10.05 339.71-10.05Q336.06-3.65 331.86 0.35L331.86 0.35 331.16 0.35Q327.36-1.8 327.36-7.5L327.36-7.5Q327.36-11.1 328.71-14.5 330.06-17.9 332.68-20.28 335.31-22.65 339.06-23.25L339.06-23.25 339.31-23.25 342.41-22.1 344.81-23.3ZM332.21-3.75Q332.81-3.75 334.28-5.4 335.76-7.05 337.63-10.2 339.51-13.35 341.31-17.6L341.31-17.6 341.36-17.9 341.41-19.1 338.31-20.2Q336.01-20.2 334.28-18.63 332.56-17.05 331.66-14.38 330.76-11.7 330.76-8.45L330.76-8.45Q330.76-5.95 331.21-4.85 331.66-3.75 332.21-3.75L332.21-3.75ZM358.66-35.2L354.51-5.45 354.26-0.15 350.51 0.2 354.76-30 354.91-34.85 358.66-35.2Z" opacity="1" transform="matrix(1,0,0,1,0,0)" fill="#ffffff" class="slogan-text-1" data-fill-palette-color="secondary" id="text-1"></path></svg></g></svg></g></svg></g></svg></g><g><svg viewBox="0 0 244.43135999999998 107.7442324363636" height="107.7442324363636" width="244.43135999999998"><g><svg xmlns:x="http://ns.adobe.com/Extensibility/1.0/" xmlns:i="http://ns.adobe.com/AdobeIllustrator/10.0/" xmlns:graph="http://ns.adobe.com/Graphs/1.0/" xmlns="http://www.w3.org/2000/svg" xmlns:xlink="http://www.w3.org/1999/xlink" version="1.1" x="0" y="0" viewBox="6 30.605 88 38.78999999999999" enable-background="new 0 0 100 100" xml:space="preserve" height="107.7442324363636" width="244.43135999999998" class="icon-icon-0" data-fill-palette-color="accent" id="icon-0"><g fill="#ffffff" data-fill-palette-color="accent"><path d="M94 50C94 49.558 93.805 49.164 93.5 48.889V47.5A1 1 0 1 0 91.5 47.5V48.5H89.526V39.711A4.19 4.19 0 0 0 85.341 35.526H84A4.19 4.19 0 0 0 79.815 39.711V48.5H78.341V35.237A4.19 4.19 0 0 0 74.157 31.052H70.578A4.19 4.19 0 0 0 66.393 35.237V43.5H33.605V34.789A4.19 4.19 0 0 0 29.42 30.605H25.841A4.19 4.19 0 0 0 21.656 34.789V48.5H20.182V39.711A4.19 4.19 0 0 0 15.998 35.526H14.656A4.19 4.19 0 0 0 10.472 39.711V48.5H8.5V47.5A1 1 0 0 0 6.5 47.5V48.889C6.195 49.164 6 49.558 6 50S6.195 50.836 6.5 51.111V52.5A1 1 0 1 0 8.5 52.5V51.5H10.474V60.289A4.19 4.19 0 0 0 14.658 64.474H16A4.19 4.19 0 0 0 20.184 60.289V51.5H21.658V64.763A4.19 4.19 0 0 0 25.843 68.948H29.422A4.19 4.19 0 0 0 33.607 64.763V56.5H66.396V65.21A4.19 4.19 0 0 0 70.581 69.395H74.16A4.19 4.19 0 0 0 78.344 65.21V51.5H79.818V60.289A4.19 4.19 0 0 0 84.003 64.474H85.345A4.19 4.19 0 0 0 89.53 60.289V51.5H91.5V52.5A1 1 0 1 0 93.5 52.5V51.11C93.805 50.836 94 50.442 94 50M17.184 60.289C17.184 60.942 16.653 61.474 16 61.474H14.658A1.185 1.185 0 0 1 13.474 60.289V39.711C13.474 39.058 14.005 38.526 14.658 38.526H16C16.653 38.526 17.184 39.057 17.184 39.711zM30.605 64.763C30.605 65.416 30.074 65.948 29.42 65.948H25.841A1.186 1.186 0 0 1 24.656 64.763V34.789C24.656 34.136 25.187 33.605 25.841 33.605H29.42C30.073 33.605 30.605 34.136 30.605 34.789zM66 53.5H34V46.5H66zM75.342 65.21C75.342 65.863 74.811 66.395 74.158 66.395H70.579A1.186 1.186 0 0 1 69.394 65.21V35.237C69.394 34.584 69.925 34.052 70.579 34.052H74.158C74.81 34.052 75.342 34.583 75.342 35.237zM86.526 60.289C86.526 60.942 85.995 61.474 85.341 61.474H84A1.186 1.186 0 0 1 82.815 60.289V39.711C82.815 39.058 83.346 38.526 84 38.526H85.342C85.995 38.526 86.527 39.057 86.527 39.711V60.289z" fill="#ffffff" data-fill-palette-color="accent"></path><path d="M37.5 51H62.5A1 1 0 1 0 62.5 49H37.5A1 1 0 0 0 37.5 51" fill="#ffffff" data-fill-palette-color="accent"></path></g></svg><g></g></g></svg></g></svg></g><defs></defs></svg><rect width="395.5199999999999" height="62.66520071416047" fill="none" stroke="none" visibility="hidden"></rect></g></svg></g></svg>